<svg xmlns="http://www.w3.org/2000/svg" viewBox="0 0 32 32" fill="none">
  <!-- Fundo arredondado brasea-dark -->
  <rect width="32" height="32" rx="7" fill="#292624"/>
  <!-- Chama do logo Brasea: paths escalados para caber em 32x32 (scale 0.793, centrado) -->
  <g transform="translate(4.72 2) scale(0.793)">
    <!-- Haste central terracota -->
    <path d="M12.8012 0C13.2615 0.161067 14.1885 0.926434 14.5494 1.29476C17.2892 4.08803 16.7956 7.34212 16.8305 10.8894C16.8142 13.2614 16.1623 15.563 14.6947 17.4397C13.2358 19.3054 11.1261 20.4291 10.4989 22.8232C9.97499 24.8234 10.1247 26.9786 10.1262 29.025L10.1189 35.2339C9.94404 35.3496 6.67957 35.2885 6.18611 35.2852C6.14604 34.0676 6.1717 32.7524 6.17132 31.5262L6.17203 25.2117C6.18131 22.0601 6.67138 19.6744 8.87741 17.2058C9.47155 16.6016 10.1081 16.0212 10.7284 15.4431C13.2713 13.0734 12.7984 9.96756 12.7997 6.77348L12.8012 0Z" fill="#94492A"/>
    <!-- Chama esquerda terra-mid -->
    <path d="M10.1388 4.76489C10.5285 5.13879 10.848 7.10888 10.8514 7.68009C10.8684 10.5886 8.45038 12.0515 6.58962 13.8405C5.47037 14.9165 4.56644 16.4021 4.24617 17.9338C3.99262 19.0812 4.04754 20.0644 4.05006 21.2252L4.05279 24.331L4.05126 35.2889L0.659194 35.2976L0.0264585 35.2987L0.031917 24.6757C0.0318624 22.0063 -0.158957 19.1004 0.393192 16.4959C1.55504 11.0155 7.24262 8.98675 10.1388 4.76489Z" fill="#B5693E"/>
    <!-- Chama direita cream -->
    <path d="M18.8957 6.1701C19.7977 6.49868 20.5304 6.83004 21.2123 7.52181C23.2766 9.61677 22.8137 11.7931 22.8694 14.3892C22.9474 18.0291 22.693 20.622 20.1258 23.4794C19.6262 24.0351 19.0289 24.576 18.4999 25.1146C16.3116 27.3413 16.2958 28.7985 16.3045 31.6394L16.3061 35.2793C15.2682 35.3546 13.3617 35.2945 12.2856 35.2918L12.2955 29.997C12.3368 25.8589 13.7111 23.5082 16.7784 20.7769C19.2206 18.6028 18.8897 15.3038 18.8859 12.3772L18.8957 6.1701Z" fill="#EFE6D9"/>
    <!-- Chama far-right olive -->
    <path d="M24.4853 10.382C26.2444 11.2761 27.8136 14.2049 28.2285 16.0582C28.5081 17.3067 28.4109 18.4315 28.46 19.6297C28.5883 22.77 28.1838 25.6537 25.8459 27.9799C24.6988 29.195 23.6614 29.9826 22.7578 31.3917C21.9984 32.5758 22.5678 34.8199 22.2746 35.2834C20.9479 35.2741 19.6212 35.2779 18.2944 35.2949C18.3015 31.1572 18.3769 29.7366 21.5097 26.5354C22.1398 25.9029 22.7758 25.3161 23.3633 24.642C24.6627 23.1522 24.512 21.1936 24.5181 19.3313L24.5252 15.7005C24.5268 14.2771 24.6092 11.7245 24.4853 10.382Z" fill="#54584A"/>
  </g>
</svg>
