<svg width="92" height="36" viewBox="0 0 92 36" fill="none" xmlns="http://www.w3.org/2000/svg">
<path d="M12.8012 0C13.2615 0.161067 14.1885 0.926434 14.5494 1.29476C17.2892 4.08803 16.7956 7.34212 16.8305 10.8894C16.8142 13.2614 16.1623 15.563 14.6947 17.4397C13.2358 19.3054 11.1261 20.4291 10.4989 22.8232C9.97499 24.8234 10.1247 26.9786 10.1262 29.025L10.1189 35.2339C9.94404 35.3496 6.67957 35.2885 6.18611 35.2852C6.14604 34.0676 6.1717 32.7524 6.17132 31.5262L6.17203 25.2117C6.18131 22.0601 6.67138 19.6744 8.87741 17.2058C9.47155 16.6016 10.1081 16.0212 10.7284 15.4431C13.2713 13.0734 12.7984 9.96756 12.7997 6.77348L12.8012 0Z" fill="#94492A"/>
<path d="M10.1388 4.76489C10.5285 5.13879 10.848 7.10888 10.8514 7.68009C10.8684 10.5886 8.45038 12.0515 6.58962 13.8405C5.47037 14.9165 4.56644 16.4021 4.24617 17.9338C3.99262 19.0812 4.04754 20.0644 4.05006 21.2252L4.05279 24.331L4.05126 35.2889L0.659194 35.2976L0.0264585 35.2987L0.031917 24.6757C0.0318624 22.0063 -0.158957 19.1004 0.393192 16.4959C1.55504 11.0155 7.24262 8.98675 10.1388 4.76489Z" fill="#B5693E"/>
<path d="M18.8957 6.1701C19.7977 6.49868 20.5304 6.83004 21.2123 7.52181C23.2766 9.61677 22.8137 11.7931 22.8694 14.3892C22.9474 18.0291 22.693 20.622 20.1258 23.4794C19.6262 24.0351 19.0289 24.576 18.4999 25.1146C16.3116 27.3413 16.2958 28.7985 16.3045 31.6394L16.3061 35.2793C15.2682 35.3546 13.3617 35.2945 12.2856 35.2918L12.2955 29.997C12.3368 25.8589 13.7111 23.5082 16.7784 20.7769C19.2206 18.6028 18.8897 15.3038 18.8859 12.3772L18.8957 6.1701Z" fill="#EFE6D9"/>
<path d="M24.4853 10.382C26.2444 11.2761 27.8136 14.2049 28.2285 16.0582C28.5081 17.3067 28.4109 18.4315 28.46 19.6297C28.5883 22.77 28.1838 25.6537 25.8459 27.9799C24.6988 29.195 23.6614 29.9826 22.7578 31.3917C21.9984 32.5758 22.5678 34.8199 22.2746 35.2834C20.9479 35.2741 19.6212 35.2779 18.2944 35.2949C18.3015 31.1572 18.3769 29.7366 21.5097 26.5354C22.1398 25.9029 22.7758 25.3161 23.3633 24.642C24.6627 23.1522 24.512 21.1936 24.5181 19.3313L24.5252 15.7005C24.5268 14.2771 24.6092 11.7245 24.4853 10.382Z" fill="#54584A"/>
<path d="M30.0247 22.5262C31.1458 22.4864 32.4603 22.5109 33.597 22.5137C34.8999 22.5535 36.1889 22.3941 37.4732 22.6638C40.3328 23.2638 41.1713 26.9886 38.5237 28.5365C40.6118 29.5929 41.2567 31.3199 40.25 33.4613C39.8954 33.9969 39.4245 34.4495 38.8716 34.7569C38.5121 34.9567 37.4299 35.2565 37.0949 35.2598C36.0211 35.2712 30.675 35.4132 30.0089 35.2024C29.8727 34.7018 29.9234 31.0431 29.9233 30.2569L29.924 25.5444C29.9239 25.0662 29.8643 22.8309 30.0247 22.5262Z" fill="#EFE6D9"/>
<path d="M46.7107 25.6529C48.5848 25.4503 47.9371 26.4882 47.723 27.7762C46.2569 27.4017 44.4923 27.7942 44.1954 29.5299C43.8911 31.3082 44.117 33.4387 44.0465 35.283C43.4388 35.3393 42.7186 35.3136 42.1093 35.2934C41.9724 35.1225 41.993 34.5372 41.9973 34.2975C42.047 31.4982 41.9406 28.6585 42.018 25.8642C42.6588 25.821 43.3181 25.832 43.9595 25.85C44.0051 26.284 43.9928 26.9141 43.997 27.364C44.0661 27.2706 44.1366 27.1789 44.2083 27.0877C44.9165 26.1918 45.589 25.7828 46.7107 25.6529Z" fill="#EFE6D9"/>
<path d="M53.5719 25.4515C55.2562 25.2697 56.3594 25.7873 57.4564 27.03C57.4598 26.5419 57.459 26.1422 57.5136 25.6541C58.1519 25.6153 58.792 25.6181 59.43 25.6623C59.51 27.4717 59.4099 29.5088 59.4471 31.3433C59.4584 31.8986 59.4857 34.5919 59.382 34.997C59.0687 35.1303 57.7683 35.2001 57.5256 35.0123C57.4023 34.6705 57.428 34.076 57.4254 33.6976L56.9333 34.2414C56.3429 34.8081 55.5855 35.169 54.7736 35.2706C48.0656 36.0775 47.3023 26.1373 53.5719 25.4515Z" fill="#EFE6D9"/>
<path d="M64.4213 25.4616C66.2695 25.2224 67.6317 25.8028 69.0485 26.9177L67.8129 28.2046C66.6658 27.3387 66.0199 26.9936 64.5376 27.1187C63.8595 27.1754 62.9936 27.5483 63.1355 28.346C63.3135 29.3446 65.3129 29.3523 66.0849 29.5865C66.9208 29.8404 67.6808 29.9349 68.3742 30.5147C69.4569 31.3561 69.4121 33.0705 68.5538 34.0614C67.7381 35.0038 66.6686 35.2255 65.4696 35.3145C65.2785 35.3178 65.0874 35.3178 64.8958 35.3156C63.2311 35.291 61.8962 34.7701 60.7349 33.5799C61.0264 33.219 61.6374 32.6146 62.0321 32.3902C62.2882 32.5512 62.5639 32.7746 62.8118 32.9498C63.5821 33.51 64.3072 33.6454 65.2239 33.6394C65.9965 33.6339 67.2691 33.3375 67.1212 32.3405C66.9552 31.2245 64.424 31.2092 63.5942 30.9035C62.9865 30.679 62.4678 30.5961 61.9551 30.162C60.9052 29.3949 60.8457 27.693 61.6472 26.719C62.3362 25.8825 63.355 25.5719 64.4213 25.4616Z" fill="#EFE6D9"/>
<path d="M74.8439 25.4289C75.03 25.3995 75.2452 25.4109 75.4362 25.406C78.7187 25.323 80.5133 27.822 80.2212 30.9096C79.352 30.9598 78.2644 30.9254 77.3788 30.9232L72.5191 30.9227C72.6621 31.698 72.9362 32.2909 73.5406 32.8183C74.8084 33.9234 77.1965 33.7853 78.3032 32.5126C78.4146 32.4383 78.4129 32.4514 78.5451 32.4067C78.9125 32.4815 79.6272 33.1519 79.8898 33.4298C78.0247 35.5707 74.5523 35.9578 72.2985 34.2428C71.3015 33.4713 70.6573 32.3308 70.5115 31.0788C70.1544 28.1572 71.8704 25.7511 74.8439 25.4289Z" fill="#EFE6D9"/>
<path d="M85.9099 25.441C87.5358 25.2614 88.6141 25.8216 89.6761 27.0031C89.6744 26.5226 89.6739 26.1229 89.7099 25.6414C90.3318 25.6043 91.0121 25.6152 91.6339 25.643C91.6907 27.1423 91.6509 28.8649 91.6536 30.3833C91.6558 31.8738 91.6924 33.6074 91.6312 35.0777C91.0497 35.1214 90.2673 35.105 89.6897 35.0722C89.6477 34.6305 89.6318 34.1102 89.6078 33.6598C89.3703 33.971 89.2671 34.096 88.9865 34.3663C87.4184 35.6766 84.8507 35.6046 83.3416 34.3231C80.0575 31.5342 81.4116 25.8571 85.9099 25.441Z" fill="#EFE6D9"/>
<path d="M32.057 29.4951L34.8812 29.4854C36.2499 29.4827 38.2082 29.3007 38.5717 31.0952C38.7019 31.7385 38.3967 32.2497 38.0289 32.7517C37.3568 33.3746 35.7112 33.264 34.8322 33.2619L32.0653 33.2672C32.0482 32.0199 32.0596 30.7446 32.057 29.4951Z" fill="#292624"/>
<path d="M32.0597 24.2914C32.8015 24.2931 33.5433 24.2904 34.2851 24.2834C35.6809 24.2764 38.0189 24.0375 38.0519 26.0586C38.0611 26.624 37.8854 26.8753 37.5101 27.2592C36.3789 28.0314 33.4727 27.7758 32.0439 27.7747C32.0557 26.6138 32.061 25.4524 32.0597 24.2914Z" fill="#292624"/>
<path d="M53.4778 27.398C54.5931 27.2095 55.7256 27.623 56.4436 28.481C57.1617 29.3386 57.3546 30.5086 56.9489 31.5449C56.5431 32.5807 55.6011 33.3233 54.4822 33.4887C52.777 33.7416 51.1824 32.6006 50.907 30.9312C50.6317 29.2612 51.7784 27.6858 53.4778 27.398Z" fill="#292624"/>
<path d="M86.127 27.3556C87.0177 27.2826 87.6901 27.3331 88.4445 27.8663C89.8555 28.8623 90.0104 31.1831 88.98 32.4831C88.5601 33.012 87.8374 33.4464 87.147 33.5253C82.7455 33.9092 82.3229 28.008 86.127 27.3556Z" fill="#292624"/>
<path d="M74.8902 27.251C76.675 27.1345 77.7525 27.6918 78.1489 29.4799C77.3841 29.5014 76.5568 29.488 75.787 29.489C74.6651 29.4939 73.5433 29.4901 72.4209 29.4783C72.993 28.1498 73.3768 27.5409 74.8902 27.251Z" fill="#292624"/>
</svg>
